<svg xmlns="http://www.w3.org/2000/svg" width="256" height="256" viewBox="0 0 256 256" role="img" aria-labelledby="title desc">
  <title id="title">Cave Pony logo</title>
  <desc id="desc">Pixel-art pony standing in a cave above the words Cave Pony.</desc>
  <rect width="256" height="256" fill="#080900"/>
  <g shape-rendering="crispEdges">
    <path d="M42 118V72L50 72V56L58 56V44L70 44V34L86 34V26L104 26V20H152V26H170V34H186V44H198V56H206V72H214V118H198V76H190V60H178V48H162V40H94V48H78V60H66V76H58V118Z" fill="#8a6037"/>
    <path d="M54 112V78H62V62H74V50H90V42H166V50H182V62H194V78H202V112H188V82H180V66H168V58H88V66H76V82H68V112Z" fill="#3c2a1d"/>
    <rect x="34" y="116" width="188" height="8" fill="#8a6037"/>
    <rect x="44" y="124" width="168" height="6" fill="#2c211b"/>
    <rect x="98" y="65" width="48" height="34" fill="#d89534"/>
    <rect x="136" y="56" width="24" height="25" fill="#e6a43a"/>
    <rect x="153" y="61" width="12" height="11" fill="#e6a43a"/>
    <rect x="158" y="64" width="5" height="5" fill="#17120f"/>
    <rect x="104" y="92" width="9" height="23" fill="#c57e25"/>
    <rect x="132" y="92" width="9" height="23" fill="#c57e25"/>
    <rect x="95" y="110" width="19" height="6" fill="#7b4b22"/>
    <rect x="131" y="110" width="19" height="6" fill="#7b4b22"/>
    <path d="M98 66H88V72H82V82H88V92H96V84H92V74H98Z" fill="#f0bc58"/>
    <path d="M100 65H92V56H100V50H112V56H120V62H106V70H100Z" fill="#5a311c"/>
    <path d="M142 82H150V90H156V99H151V106H145V98H148V90H142Z" fill="#f0bc58"/>
    <rect x="136" y="78" width="6" height="18" fill="#7dc4d5"/>
    <rect x="142" y="81" width="4" height="12" fill="#274e5e"/>
    <rect x="48" y="139" width="160" height="42" fill="#151515" stroke="#9a6a32" stroke-width="6"/>
    <text x="128" y="171" text-anchor="middle" font-family="ui-monospace, SFMono-Regular, Menlo, Consolas, monospace" font-size="38" font-weight="900" letter-spacing="3" fill="#eee5d8" stroke="#5e4a34" stroke-width="2">CAVE</text>
    <rect x="40" y="181" width="176" height="49" fill="#151515" stroke="#9a6a32" stroke-width="6"/>
    <text x="128" y="220" text-anchor="middle" font-family="ui-monospace, SFMono-Regular, Menlo, Consolas, monospace" font-size="39" font-weight="900" letter-spacing="1" fill="#f39b16" stroke="#75420e" stroke-width="2">PONY</text>
    <rect x="28" y="193" width="8" height="8" fill="#2db8e6"/>
    <rect x="220" y="193" width="8" height="8" fill="#2db8e6"/>
  </g>
</svg>
